<svg xmlns="http://www.w3.org/2000/svg" xmlns:xlink="http://www.w3.org/1999/xlink" width="500" zoomAndPan="magnify" viewBox="0 0 375 374.999991" height="500" preserveAspectRatio="xMidYMid meet" version="1.0"><defs><clipPath id="id1"><path d="M 57.558594 57.558594 L 317.441406 57.558594 L 317.441406 317.441406 L 57.558594 317.441406 Z M 57.558594 57.558594 " clip-rule="nonzero"/></clipPath><clipPath id="id2"><path d="M 105.824219 93.617188 L 269.550781 93.617188 L 269.550781 280.734375 L 105.824219 280.734375 Z M 105.824219 93.617188 " clip-rule="nonzero"/></clipPath></defs><g clip-path="url(#id1)"><path fill="#1877f2" d="M 317.441406 187.5 C 317.441406 189.625 317.390625 191.75 317.285156 193.875 C 317.183594 196 317.027344 198.121094 316.816406 200.238281 C 316.609375 202.351562 316.347656 204.464844 316.035156 206.566406 C 315.722656 208.671875 315.359375 210.765625 314.945312 212.851562 C 314.53125 214.9375 314.066406 217.011719 313.546875 219.074219 C 313.03125 221.136719 312.464844 223.183594 311.847656 225.21875 C 311.230469 227.253906 310.5625 229.273438 309.847656 231.277344 C 309.128906 233.277344 308.363281 235.261719 307.550781 237.226562 C 306.738281 239.191406 305.875 241.136719 304.964844 243.058594 C 304.058594 244.980469 303.101562 246.878906 302.097656 248.753906 C 301.097656 250.628906 300.050781 252.480469 298.957031 254.304688 C 297.863281 256.128906 296.726562 257.925781 295.542969 259.691406 C 294.363281 261.460938 293.136719 263.199219 291.871094 264.90625 C 290.605469 266.613281 289.296875 268.289062 287.945312 269.933594 C 286.597656 271.578125 285.210938 273.1875 283.78125 274.765625 C 282.351562 276.339844 280.886719 277.878906 279.382812 279.382812 C 277.878906 280.886719 276.339844 282.351562 274.765625 283.78125 C 273.1875 285.210938 271.578125 286.597656 269.933594 287.945312 C 268.289062 289.296875 266.613281 290.605469 264.90625 291.871094 C 263.199219 293.136719 261.460938 294.363281 259.691406 295.542969 C 257.925781 296.726562 256.128906 297.863281 254.304688 298.957031 C 252.480469 300.050781 250.628906 301.097656 248.753906 302.097656 C 246.878906 303.101562 244.980469 304.058594 243.058594 304.964844 C 241.136719 305.875 239.191406 306.738281 237.226562 307.550781 C 235.261719 308.363281 233.277344 309.128906 231.277344 309.847656 C 229.273438 310.5625 227.253906 311.230469 225.21875 311.847656 C 223.183594 312.464844 221.136719 313.03125 219.074219 313.546875 C 217.011719 314.066406 214.9375 314.53125 212.851562 314.945312 C 210.765625 315.359375 208.671875 315.722656 206.566406 316.035156 C 204.464844 316.347656 202.351562 316.609375 200.238281 316.816406 C 198.121094 317.027344 196 317.183594 193.875 317.285156 C 191.75 317.390625 189.625 317.441406 187.5 317.441406 C 185.375 317.441406 183.25 317.390625 181.125 317.285156 C 179 317.183594 176.878906 317.027344 174.761719 316.816406 C 172.648438 316.609375 170.535156 316.347656 168.433594 316.035156 C 166.328125 315.722656 164.234375 315.359375 162.148438 314.945312 C 160.0625 314.53125 157.988281 314.066406 155.925781 313.546875 C 153.863281 313.03125 151.816406 312.464844 149.78125 311.847656 C 147.746094 311.230469 145.726562 310.5625 143.722656 309.847656 C 141.722656 309.128906 139.738281 308.363281 137.773438 307.550781 C 135.808594 306.738281 133.863281 305.875 131.941406 304.964844 C 130.019531 304.058594 128.121094 303.101562 126.246094 302.097656 C 124.371094 301.097656 122.519531 300.050781 120.695312 298.957031 C 118.871094 297.863281 117.074219 296.726562 115.308594 295.542969 C 113.539062 294.363281 111.800781 293.136719 110.09375 291.871094 C 108.386719 290.605469 106.710938 289.296875 105.066406 287.945312 C 103.421875 286.597656 101.8125 285.210938 100.234375 283.78125 C 98.660156 282.351562 97.121094 280.886719 95.617188 279.382812 C 94.113281 277.878906 92.648438 276.339844 91.21875 274.765625 C 89.789062 273.1875 88.402344 271.578125 87.054688 269.933594 C 85.703125 268.289062 84.394531 266.613281 83.128906 264.90625 C 81.863281 263.199219 80.636719 261.460938 79.457031 259.691406 C 78.273438 257.925781 77.136719 256.128906 76.042969 254.304688 C 74.949219 252.480469 73.902344 250.628906 72.902344 248.753906 C 71.898438 246.878906 70.941406 244.980469 70.03125 243.058594 C 69.125 241.136719 68.261719 239.191406 67.449219 237.226562 C 66.632812 235.261719 65.871094 233.277344 65.152344 231.277344 C 64.4375 229.273438 63.769531 227.253906 63.152344 225.21875 C 62.535156 223.183594 61.96875 221.136719 61.453125 219.074219 C 60.933594 217.011719 60.46875 214.9375 60.054688 212.851562 C 59.640625 210.765625 59.277344 208.671875 58.964844 206.566406 C 58.652344 204.464844 58.390625 202.351562 58.183594 200.238281 C 57.972656 198.121094 57.816406 196 57.714844 193.875 C 57.609375 191.75 57.558594 189.625 57.558594 187.5 C 57.558594 185.375 57.609375 183.25 57.714844 181.125 C 57.816406 179 57.972656 176.878906 58.183594 174.761719 C 58.390625 172.648438 58.652344 170.535156 58.964844 168.433594 C 59.277344 166.328125 59.640625 164.234375 60.054688 162.148438 C 60.46875 160.0625 60.933594 157.988281 61.453125 155.925781 C 61.96875 153.863281 62.535156 151.816406 63.152344 149.78125 C 63.769531 147.746094 64.4375 145.726562 65.152344 143.722656 C 65.871094 141.722656 66.632812 139.738281 67.449219 137.773438 C 68.261719 135.808594 69.125 133.863281 70.03125 131.941406 C 70.941406 130.019531 71.898438 128.121094 72.902344 126.246094 C 73.902344 124.371094 74.949219 122.519531 76.042969 120.695312 C 77.136719 118.871094 78.273438 117.074219 79.457031 115.308594 C 80.636719 113.539062 81.863281 111.800781 83.128906 110.09375 C 84.394531 108.386719 85.703125 106.710938 87.054688 105.066406 C 88.402344 103.421875 89.789062 101.8125 91.21875 100.234375 C 92.648438 98.660156 94.113281 97.121094 95.617188 95.617188 C 97.121094 94.113281 98.660156 92.648438 100.234375 91.21875 C 101.8125 89.789062 103.421875 88.402344 105.066406 87.054688 C 106.710938 85.703125 108.386719 84.394531 110.09375 83.128906 C 111.800781 81.863281 113.539062 80.636719 115.308594 79.457031 C 117.074219 78.273438 118.871094 77.136719 120.695312 76.042969 C 122.519531 74.949219 124.371094 73.902344 126.246094 72.902344 C 128.121094 71.898438 130.019531 70.941406 131.941406 70.03125 C 133.863281 69.125 135.808594 68.261719 137.773438 67.449219 C 139.738281 66.632812 141.722656 65.871094 143.722656 65.152344 C 145.726562 64.4375 147.746094 63.769531 149.78125 63.152344 C 151.816406 62.535156 153.863281 61.96875 155.925781 61.453125 C 157.988281 60.933594 160.0625 60.46875 162.148438 60.054688 C 164.234375 59.640625 166.328125 59.277344 168.433594 58.964844 C 170.535156 58.652344 172.648438 58.390625 174.761719 58.183594 C 176.878906 57.972656 179 57.816406 181.125 57.714844 C 183.25 57.609375 185.375 57.558594 187.5 57.558594 C 189.625 57.558594 191.75 57.609375 193.875 57.714844 C 196 57.816406 198.121094 57.972656 200.238281 58.183594 C 202.351562 58.390625 204.464844 58.652344 206.566406 58.964844 C 208.671875 59.277344 210.765625 59.640625 212.851562 60.054688 C 214.9375 60.46875 217.011719 60.933594 219.074219 61.453125 C 221.136719 61.96875 223.183594 62.535156 225.21875 63.152344 C 227.253906 63.769531 229.273438 64.4375 231.277344 65.152344 C 233.277344 65.871094 235.261719 66.632812 237.226562 67.449219 C 239.191406 68.261719 241.136719 69.125 243.058594 70.03125 C 244.980469 70.941406 246.878906 71.898438 248.753906 72.902344 C 250.628906 73.902344 252.480469 74.949219 254.304688 76.042969 C 256.128906 77.136719 257.925781 78.273438 259.691406 79.457031 C 261.460938 80.636719 263.199219 81.863281 264.90625 83.128906 C 266.613281 84.394531 268.289062 85.703125 269.933594 87.054688 C 271.578125 88.402344 273.1875 89.789062 274.765625 91.21875 C 276.339844 92.648438 277.878906 94.113281 279.382812 95.617188 C 280.886719 97.121094 282.351562 98.660156 283.78125 100.234375 C 285.210938 101.8125 286.597656 103.421875 287.945312 105.066406 C 289.296875 106.710938 290.605469 108.386719 291.871094 110.09375 C 293.136719 111.800781 294.363281 113.539062 295.542969 115.308594 C 296.726562 117.074219 297.863281 118.871094 298.957031 120.695312 C 300.050781 122.519531 301.097656 124.371094 302.097656 126.246094 C 303.101562 128.121094 304.058594 130.019531 304.964844 131.941406 C 305.875 133.863281 306.738281 135.808594 307.550781 137.773438 C 308.363281 139.738281 309.128906 141.722656 309.847656 143.722656 C 310.5625 145.726562 311.230469 147.746094 311.847656 149.78125 C 312.464844 151.816406 313.03125 153.863281 313.546875 155.925781 C 314.066406 157.988281 314.53125 160.0625 314.945312 162.148438 C 315.359375 164.234375 315.722656 166.328125 316.035156 168.433594 C 316.347656 170.535156 316.609375 172.648438 316.816406 174.761719 C 317.027344 176.878906 317.183594 179 317.285156 181.125 C 317.390625 183.25 317.441406 185.375 317.441406 187.5 Z M 317.441406 187.5 " fill-opacity="1" fill-rule="nonzero"/></g><g clip-path="url(#id2)"><path fill="#ffffff" d="M 237.078125 219.71875 C 235.273438 219.71875 233.753906 220.914062 233.167969 222.613281 C 227.449219 239.089844 211.453125 248.195312 190.859375 248.195312 C 160.839844 248.195312 142.683594 225.632812 142.683594 187.117188 C 142.683594 148.71875 160.839844 126.160156 190.734375 126.160156 C 211.808594 126.160156 228.152344 137.058594 233.527344 155.628906 C 234.046875 157.417969 235.613281 158.703125 237.484375 158.703125 C 237.484375 158.703125 260.128906 158.714844 267.464844 158.703125 C 268.695312 158.699219 269.65625 157.617188 269.496094 156.40625 C 264.703125 119.941406 231.777344 93.617188 190.734375 93.617188 C 138.386719 93.617188 105.863281 129.492188 105.863281 187.238281 C 105.863281 244.90625 138.433594 280.734375 190.859375 280.734375 C 232.046875 280.734375 263.578125 257.203125 269.488281 222.101562 C 269.695312 220.867188 268.722656 219.722656 267.460938 219.71875 Z M 237.078125 219.71875 " fill-opacity="1" fill-rule="nonzero"/></g></svg>